# xmcd
#
# Track frame offsets:
#	150
#	15183
#	32011
#	45730
#	63863
#	79034
#	94205
#	105824
#	120252
#	137382
#	154447
#	168530
#	183340
#	199194
#	210720
#
# Disc length: 3007 seconds
#
# Revision: 1
# Processed by: cddbd v1.5.2PL0 Copyright (c) Steve Scherf et al.
# Submitted via: audiograbber 1.83.01
#
DISCID=b50bbd0f
DTITLE=ZÉ HENRIQUE E GABRIEL - AO VIVO
DYEAR=1900
DGENRE=Country
TTITLE0=ACELEROU
TTITLE1=EU AMO TE AMAR
TTITLE2=O AMOR DEIXA A GENTE IDIOTA
TTITLE3=NÃO ME DOU POR VENCIDO
TTITLE4=MEU SOL
TTITLE5=MUITO PRAZER
TTITLE6=HISTÓRIAS DO CORAÇÃO
TTITLE7=MINHA OUTRA METADE
TTITLE8=OBA, OBA
TTITLE9=CARTAS DE AMOR
TTITLE10=O QUE COMBINA COMIGO É VOCÊ
TTITLE11=AH, QUE DEUS É ESSE
TTITLE12=PEITO DE AÇO
TTITLE13=NAS ASAS DE SEU CORAÇÃO
TTITLE14=SOLIDÃO DANDO RISADA
EXTD=
EXTT0=
EXTT1=
EXTT2=
EXTT3=
EXTT4=
EXTT5=
EXTT6=
EXTT7=
EXTT8=
EXTT9=
EXTT10=
EXTT11=
EXTT12=
EXTT13=
EXTT14=
PLAYORDER=
